<svg height="512" viewBox="0 0 58 54" width="512" xmlns="http://www.w3.org/2000/svg">
  <g id="002---Give-Women's-Rights" fill="none">
  <path id="Shape" d="m6.563 29.8-2.1-2.23c-5.98836591-6.5937803-5.59691259-16.7677402.88040373-22.88189091 6.47731637-6.1141507 16.65692537-5.9185623 22.89459627.43989091l.7.744 9.062 3.128 14.868 19.252c.912.967 1.857 1.821 1.816 3.667-.0516206 1.6509392-1.0907423 3.1089627-2.6344623 3.6964946-1.5437199.5875319-3.2893028.1893528-4.4255377-1.0094946 1.0231183 1.058388 1.398195 2.5851178.9819833 3.9971107-.4162117 1.411993-1.5594307 2.4911763-2.9930463 2.8253955-1.4336156.3342191-2.9362157-.1281438-3.933937-1.2105062 1.4934503 1.5759949 1.4926912 4.0450423-.001728 5.6201186-1.4944191 1.5750763-3.9600194 1.7055031-5.612272.2968814z" fill="#6cc8f7"/>
  <path id="Shape" d="m19.4 27.17c.0017459 1.1242751-.4615295 2.1992189-1.28 2.97l-5.2 4.91c-1.1910607 1.1135344-2.92874399 1.4154737-4.42562398.7689951-1.49688-.6464786-2.46842254-2.1184894-2.47437602-3.7489951-.00180737-1.1263313.465626-2.2025151 1.29-2.97l5.2-4.91c1.1886595-1.1163775 2.9269005-1.4199818 4.4236149-.7726365 1.4967145.6473453 2.4658702 2.1219281 2.4663851 3.7526365z" fill="#d3334c"/>
  <path id="Shape" d="m19.35 27.79c-.1331612.8996584-.5666402 1.7278498-1.23 2.35l-5.2 4.91c-.8864151.8338032-2.0978257 1.2300426-3.30564075 1.0812398s-2.28682763-.8272224-2.94435925-1.8512398c.13725182-.8976397.57430029-1.7223925 1.24-2.34l5.2-4.91c.8834204-.8341588 2.0923161-1.2317757 3.2984148-1.0848791 1.2060986.1468966 2.2842134.8230597 2.9415852 1.8448791z" fill="#f95770"/>
  <path id="Shape" d="m25.01 33.11c.0017459 1.1242751-.4615295 2.1992189-1.28 2.97l-5.2 4.91c-1.1897318 1.1123281-2.9250507 1.4149635-4.4210713.7710242s-2.4690273-2.1123323-2.4789287-3.7410242c-.0018074-1.1263313.465626-2.2025151 1.29-2.97l5.2-4.91c1.1870258-1.1161141 2.9233889-1.4209938 4.4196353-.7760226 1.4962463.6449712 2.4667903 2.1166889 2.4703647 3.7460226z" fill="#d3334c"/>
  <path id="Shape" d="m24.33 35.37c-.349.534-.3.427-5.8 5.62-1.1062259 1.0358024-2.6935994 1.3769244-4.1276933.8870296-1.4340939-.4898949-2.4810025-1.7309031-2.7223067-3.2270296.349-.533.3-.425 5.8-5.62.7881754-.7456393 1.840773-1.1468168 2.9252917-1.1149192 1.0845188.0318976 2.1117186.4942457 2.8547083 1.2849192.506016.6395862.8706988 1.3791765 1.07 2.17z" fill="#f95770"/>
  <path id="Shape" d="m36.23 45c-.0011855 1.1265804-.4637595 2.2035103-1.28 2.98l-5.2 4.91c-1.6463506 1.5253788-4.2144987 1.4386381-5.7541737-.1943505s-1.4753288-4.2017954.1441737-5.7556495l5.2-4.91c1.1870258-1.1161141 2.9233889-1.4209938 4.4196353-.7760226 1.4962463.6449712 2.4667903 2.1166889 2.4703647 3.7460226z" fill="#d3334c"/>
  <path id="Shape" d="m36.19 45.56c-.1269388.9239448-.564192 1.7772939-1.24 2.42l-5.2 4.91c-.8516595.7981749-2.0031459 1.1955186-3.1658062 1.0924256s-2.226266-.6968489-2.9241938-1.6324256c.1245082-.9240064.5664022-1.7759779 1.25-2.41l5.2-4.91c.8511027-.7934092 1.9987448-1.1886728 3.1579099-1.0876271 1.1591652.1010456 2.221106.6889208 2.9220901 1.6176271z" fill="#f95770"/>
  <path id="Shape" d="m52.868 28.252-15.46-16.382c-.3642394-.3861857-.8670697-.6117195-1.3977098-.6269128s-1.0455511.1812005-1.4312902.5459128l-7.464 7.044c-3.137 2.968-8.137.736-8.056-2.408.0310527-.8104207.3764537-1.5769023.963-2.137l10.4-9.823c6.5685987-6.19829158 16.9182081-5.89809844 23.1164998.67050017 6.1982917 6.56859863 5.8980987 16.91820803-.6704998 23.11649983z" fill="#f95770"/>
  <path id="Shape" d="m54.73 26.16c-.5580537.7506394-1.181127 1.4506767-1.862 2.092l-15.46-16.382c-.3642394-.3861857-.8670697-.6117195-1.3977098-.6269128s-1.0455511.1812005-1.4312902.5459128l-5.439 5.131c-.116-.131-.912.7 7.38-7.14.8069407-.75502551 2.0726642-.71477282 2.83.09z" fill="#d3334c"/>
  <path id="Shape" d="m41.679 41.218c-.2755651.0001098-.5389623-.1134984-.728-.314l-13.324-14.121c-.2452628-.2599107-.3332343-.6309243-.2307764-.9732835.1024578-.3423592.3797793-.6040515.7275-.6865s.7130136.0268728.9582764.2867835l13.324 14.121c.2744053.2902455.3497733.7159439.1916974 1.0827582-.1580758.3668143-.5192719.6043787-.9186974.6042418z" fill="#44ace2"/>
  <path id="Shape" d="m47.624 35.606c-.2754152.0003695-.5387899-.1128671-.728-.313l-13.325-14.121c-.3707727-.402904-.348579-1.0290674.0497884-1.4047102.3983675-.3756427 1.0247544-.3610618 1.4052116.0327102l13.326 14.12c.2738415.2904482.3487132.7159341.1904699 1.0824152-.1582433.3664812-.5192841.6037439-.9184699.6035848z" fill="#44ace2"/>
  <path id="Shape" d="m30.62 39.05c-.0094475 1.1248607-.4706949 2.1987023-1.28 2.98l-5.2 4.91c-1.6463506 1.5253788-4.2144987 1.4386381-5.7541737-.1943505s-1.4753288-4.2017954.1441737-5.7556495l5.2-4.91c1.187335-1.1151451 2.9231929-1.419432 4.4190368-.7746343s2.466472 2.1157411 2.4709632 3.7446343z" fill="#d3334c"/>
  <path id="Shape" d="m30.58 39.59c-.1178165.9325374-.5561719 1.7951078-1.24 2.44l-5.2 4.91c-.8553739.7979341-2.0105404 1.1930416-3.1754127 1.0861025s-2.2287923-.705766-2.9245873-1.6461025c.1157011-.9331856.5544013-1.7964344 1.24-2.44l5.2-4.91c1.645401-1.5429544 4.2281268-1.4669919 5.78.17.119189.1191997.2263712.2498279.32.39z" fill="#f95770"/></g>
</svg>
