<svg width="1920" height="1080" xmlns="http://www.w3.org/2000/svg">
 <!-- Created with Method Draw - http://github.com/duopixel/Method-Draw/ -->
 <g>
  <title>background</title>
  <rect fill="#fff" id="canvas_background" height="1082" width="1922" y="-1" x="-1"/>
  <g display="none" overflow="visible" y="0" x="0" height="100%" width="100%" id="canvasGrid">
   <rect fill="url(#gridpattern)" stroke-width="0" y="0" x="0" height="100%" width="100%"/>
  </g>
 </g>
 <g>
  <title>Layer 1</title>
  <rect stroke="#000" id="svg_1" height="1131.43125" width="1977.14788" y="-18.27098" x="-23.10207" stroke-width="1.5" fill="#161616"/>
  <rect stroke="#000" transform="rotate(-20.868120193481445 214.47924804687506,80.95143890380858) " id="svg_2" height="17.55555" width="177.25332" y="72.17366" x="125.85258" stroke-width="0" fill="#ffb67f"/>
  <rect stroke="#000" transform="rotate(-20.616859436035156 94.33233642578116,100.33432769775388) " id="svg_3" height="16" width="120.11455" y="92.33433" x="34.27506" stroke-width="0" fill="#828282"/>
  <rect transform="rotate(-23.776275634765625 1590.1333007812495,985.4465332031255) " stroke="#000" id="svg_5" height="24" width="197.64099" y="973.44659" x="1491.3179" stroke-width="0" fill="#f48024"/>
  <rect stroke="#000" transform="rotate(-23.776275634765625 1666.002441406251,936.9897460937502) " id="svg_6" height="13.92199" width="65.26506" y="930.02884" x="1633.37518" stroke-width="0" fill="#828282"/>
  <line transform="rotate(-23.776275634765625 1476.996948242187,1000.1489868164062) " stroke="#1c1a25" stroke-linecap="null" stroke-linejoin="null" id="svg_7" y2="999.64941" x2="1562.52548" y1="1000.64941" x1="1391.47904" stroke-width="3" fill="none"/>
  <ellipse stroke="#000" ry="11.12834" rx="11.59345" id="svg_9" cy="190.93889" cx="85.00263" stroke-opacity="null" stroke-width="0" fill="#333333"/>
  <ellipse stroke="#000" ry="10.3876" rx="11.22308" id="svg_10" cy="406.51276" cx="1615.23876" stroke-opacity="null" stroke-width="0" fill="#333333"/>
  <line stroke="#1e1e1d" stroke-width="6" stroke-linecap="null" stroke-linejoin="null" id="svg_13" y2="758.70507" x2="82.38785" y1="708.7049" x1="98.61082" fill="none"/>
  <rect stroke="#000" transform="rotate(35.40372085571289 1502.41943359375,123.7653961181639) " id="svg_21" height="5.43924" width="115.01464" y="121.04579" x="1444.91212" stroke-width="0" fill="#000000"/>
  <ellipse stroke="#000" ry="10.3876" rx="11.22308" id="svg_22" cy="739.37156" cx="120.18307" stroke-opacity="null" stroke-width="0" fill="#333333"/>
  <ellipse stroke="#000" ry="10.3876" rx="11.22308" id="svg_23" cy="918.32486" cx="1577.90518" stroke-opacity="null" stroke-width="0" fill="#333333"/>
  <line stroke-linecap="null" stroke-linejoin="null" id="svg_24" y2="1048.17368" x2="1289.85934" y1="949.60176" x1="1517.00334" fill-opacity="null" stroke-width="3" stroke="#ffffff" fill="none"/>
  <line stroke="#f99243" transform="rotate(61.57491683959961 1462.4759521484377,417.3081665039063) " stroke-width="6" stroke-linecap="null" stroke-linejoin="null" id="svg_26" y2="510.09843" x2="1454.37103" y1="324.51784" x1="1470.594" fill="none"/>
  <rect stroke="#000" transform="rotate(-23.776275634765625 1537.6195068359373,375.5670166015626) " id="svg_28" height="13.92199" width="65.26506" y="368.60609" x="1504.99365" stroke-width="0" fill="#828282"/>
  <line transform="rotate(-23.776275634765625 1399.9160156250007,469.04528808593733) " stroke="#1c1a25" stroke-linecap="null" stroke-linejoin="null" id="svg_29" y2="468.54575" x2="1485.44573" y1="469.54575" x1="1314.39929" stroke-width="3" fill="none"/>
 </g>
</svg>