<svg width="1000" height="600" xmlns="http://www.w3.org/2000/svg">
 <!-- Created with Method Draw - http://github.com/duopixel/Method-Draw/ -->
 <g>
  <title>background</title>
  <rect fill="#fff" id="canvas_background" height="602" width="1002" y="-1" x="-1"/>
  <g display="none" overflow="visible" y="0" x="0" height="100%" width="100%" id="canvasGrid">
   <rect fill="url(#gridpattern)" stroke-width="0" y="0" x="0" height="100%" width="100%"/>
  </g>
 </g>
 <g>
  <title>Layer 1</title>
  <rect id="svg_1" height="600" width="1000" y="-0.11621" x="-0.10885" stroke-width="1.5" stroke="#000" fill="#161616"/>
  <rect stroke="#000" transform="rotate(-20.868120193481445 134.5741424560547,56.66565322875976) " id="svg_2" height="17.55555" width="177.25332" y="47.88788" x="45.94748" stroke-width="0" fill="#e0e0e0"/>
  <rect transform="rotate(-20.616859436035156 -48.277770996093814,112.638313293457) " id="svg_3" height="16" width="190" y="104.63831" x="-143.27777" stroke-width="0" stroke="#000" fill="#828282"/>
  <rect stroke="#000" transform="rotate(35.40372085571289 970.0103759765624,168.23582458496088) " id="svg_4" height="5.43924" width="211" y="165.51621" x="864.51031" stroke-width="0" fill="#000000"/>
  <rect transform="rotate(-23.776275634765625 859.3704223632811,561.3420410156251) " stroke="#000" id="svg_5" height="24" width="381" y="549.34201" x="668.87037" stroke-width="0" fill="#e9e8e3"/>
  <rect transform="rotate(-24.131290435791016 990.1667480468747,487.82351684570295) " stroke="#000" id="svg_6" height="10" width="124" y="482.82349" x="928.16667" stroke-width="0" fill="#828282"/>
  <line transform="rotate(-23.47968101501465 801.9858398437503,563.8850708007812) " stroke-linecap="null" stroke-linejoin="null" id="svg_7" y2="563.38508" x2="920.98579" y1="564.38508" x1="682.98579" stroke-width="3" stroke="#1c1a25" fill="none"/>
  <ellipse stroke="#000" ry="11.12834" rx="11.59345" id="svg_9" cy="170.93885" cx="63.66925" stroke-opacity="null" stroke-width="0" fill="#333333"/>
  <ellipse stroke="#000" ry="10.3876" rx="11.22308" id="svg_10" cy="427.94144" cx="927.3299" stroke-opacity="null" stroke-width="0" fill="#333333"/>
  <line stroke="#1e1e1d" stroke-width="6" stroke-linecap="null" stroke-linejoin="null" id="svg_13" y2="511.56096" x2="689.53375" y1="461.5608" x1="705.75672" fill="none"/>
  <text stroke="#1e1e1d" transform="matrix(0.5807237029075623,0,0,0.48443150520324707,24.90763252414763,274.7738404534757) " xml:space="preserve" text-anchor="start" font-family="Helvetica, Arial, sans-serif" font-size="50" id="svg_14" y="522.35241" x="59.41171" fill="#262626">&lt; developer-stats /&gt;</text>
  <text stroke="#1e1e1d" transform="matrix(0.5807237029075623,0,0,0.48443150520324707,24.90763252414763,274.7738404534757) " xml:space="preserve" text-anchor="start" font-family="Helvetica, Arial, sans-serif" font-size="50" id="svg_15" y="-404.41277" x="1142.01303" fill="#262626">&lt; developer-stats /&gt;</text>
 </g>
</svg>