<svg width="500.00000000000006" height="450.00000000000006" xmlns="http://www.w3.org/2000/svg">
 <!-- Created with Method Draw - http://github.com/duopixel/Method-Draw/ -->

 <g>
  <title>background</title>
  <rect fill="#fff" id="canvas_background" height="452" width="502" y="-1" x="-1"/>
  <g display="none" overflow="visible" y="0" x="0" height="100%" width="100%" id="canvasGrid">
   <rect fill="url(#gridpattern)" stroke-width="0" y="0" x="0" height="100%" width="100%"/>
  </g>
 </g>
 <g>
  <title>Layer 1</title>
  <g fill-opacity="0.15" stroke="null" id="svg_33">
   <path stroke-width="0" fill="#f40428" stroke="#ff0000" id="svg_32" d="m127.34535,164.4773l-9.37905,-4.79845c-0.44644,-0.22851 -0.99468,-0.22618 -1.43904,0.0059c-0.44428,0.23221 -0.71764,0.65927 -0.71764,1.12115l0,9.5969c0,0.46188 0.27336,0.88895 0.71764,1.12115c0.44435,0.23214 0.99252,0.23448 1.43904,0.0059l9.37905,-4.79845c0.96648,-0.4849 0.96619,-1.7694 0,-2.2541zm-8.64994,3.69507l0,-5.13596l5.01931,2.56801l-5.01931,2.56795zm20.36741,-9.45781c-0.46917,-2.9775 -3.12438,-5.26183 -6.45712,-5.55505c-2.63256,-0.23162 -6.75732,-0.50773 -11.45731,-0.50773s-8.82468,0.27611 -11.45731,0.50773c-3.33274,0.29316 -5.98795,2.57755 -6.45712,5.55498c-0.73929,4.7161 -0.73929,9.09605 0,13.81208c0.46917,2.9775 3.12438,5.26183 6.45712,5.55505c2.63256,0.23162 6.75732,0.50773 11.45731,0.50773s8.82468,-0.27611 11.45731,-0.50773c3.33274,-0.29316 5.98795,-2.57755 6.45712,-5.55498c0.73929,-4.7161 0.73929,-9.09605 0,-13.81208zm-2.85744,13.44844c-0.2818,1.78865 -1.87761,3.16095 -3.88084,3.33719c-2.56871,0.22605 -6.59268,0.49547 -11.17615,0.49547s-8.60752,-0.26936 -11.17615,-0.49547c-2.00322,-0.17625 -3.59903,-1.54854 -3.88084,-3.33726c-0.34948,-2.21786 -0.52667,-4.41898 -0.52667,-6.54236s0.17719,-4.32444 0.52667,-6.54243c0.2818,-1.78865 1.87761,-3.16095 3.88084,-3.33719c2.56871,-0.22605 6.59268,-0.49547 11.17615,-0.49547s8.60752,0.26936 11.17615,0.49547c2.00322,0.17625 3.59903,1.54854 3.88084,3.33726c0.70141,4.4754 0.70141,8.60939 0,13.08479z"/>
  </g>
  <g fill-opacity="0.15" stroke="null" id="svg_59">
   <g stroke="null" transform="matrix(0.05940204314813595,0,0,0.06020231927012227,79.0886748035196,-95.95586987707449) " id="svg_38">
    <g stroke="null" id="svg_39">
     <path stroke-width="0" fill="#f40428" stroke="#ff0000" id="svg_40" d="m2081.55336,2969.7108c-5.665,-5.667 -13.197,-8.788 -21.21,-8.788c-8.011,-0.001 -15.545,3.12 -21.21,8.787l-39.686,39.695c-11.693,11.697 -11.693,30.728 0,42.425c5.665,5.667 13.198,8.788 21.21,8.788c8.012,0 15.545,-3.121 21.21,-8.788l39.686,-39.695c11.693,-11.697 11.693,-30.728 0,-42.424zm-10.607,31.818l-39.686,39.696c-2.832,2.833 -6.598,4.393 -10.603,4.393c-4.005,0 -7.771,-1.56 -10.603,-4.393c-5.847,-5.849 -5.847,-15.365 0,-21.214l39.686,-39.695c2.832,-2.833 6.598,-4.393 10.603,-4.393s7.771,1.56 10.603,4.393c5.847,5.848 5.847,15.365 0,21.213z"/>
    </g>
   </g>
   <g stroke="null" transform="matrix(0.05940204314813595,0,0,0.06020231927012227,79.0886748035196,-95.95586987707449) " id="svg_41">
    <g stroke="null" id="svg_42">
     <path stroke-width="0" fill="#f40428" stroke="#ff0000" id="svg_43" d="m2280.91836,2820.9658c-22.528,-41.45 -64.097,-66.196 -111.199,-66.196c-22.797,0 -44.964,6.079 -64.443,17.61c-0.697,-0.211 -1.428,-0.32 -2.177,-0.32c-2.011,0 -3.891,0.78 -5.311,2.19c-1.41,1.42 -2.189,3.3 -2.189,5.31c0,2 0.779,3.88 2.2,5.3c0.269,0.269 0.87,0.871 1.752,1.753c0.04,0.041 0.08,0.08 0.12,0.12c6.792,6.794 29.773,29.784 56.617,56.638c43.209,43.218 96.404,96.423 108.199,108.218c0.037,0.037 0.074,0.075 0.112,0.112c0.782,0.782 1.375,1.375 1.76,1.76c0,0.01 0,0.01 0,0.01l-21.2,21.2c0,0 0,0 -0.01,0.01c-0.091,-0.091 -0.528,-0.528 -1.274,-1.274c-0.034,-0.032 -0.065,-0.068 -0.099,-0.099c-16.057,-16.063 -166.015,-166.067 -167.187,-167.238l8.33,-8.33c1.41,-1.42 2.19,-3.3 2.19,-5.3c0,-2.01 -0.78,-3.89 -2.2,-5.3c-1.41,-1.42 -3.3,-2.2 -5.3,-2.2s-3.89,0.78 -5.3,2.2l-8.33,8.33c-2.8,2.79 -4.4,6.66 -4.391,10.6c-0.006,2.352 0.571,4.67 1.622,6.754c-12.719,19.7 -19.656,42.478 -20.173,65.857c-2.103,-0.158 -4.26,0.561 -5.869,2.169c-2.93,2.929 -2.93,7.678 -0.001,10.607l3.785,3.786l-246.942,278.397c-6.101,6.87 -9.46,15.7 -9.45,24.88c0,4.86 0.92,9.62 2.75,14.13c1.899,4.66 4.66,8.83 8.229,12.39l30.74,30.74c3.56,3.57 7.72,6.34 12.37,8.23c4.51,1.83 9.25,2.76 14.11,2.76l0.069,0c9.16,0 17.98,-3.36 24.84,-9.45l260.78,-231.43c3.09,-2.75 3.38,-7.5 0.63,-10.59c-1.42,-1.6 -3.47,-2.52 -5.609,-2.52c-1.841,0 -3.601,0.67 -4.98,1.89l-260.769,231.43c-4.12,3.65 -9.42,5.66 -14.931,5.67c-6.01,-0.01 -11.66,-2.35 -15.91,-6.59l-30.729,-30.74c-4.24,-4.25 -6.58,-9.9 -6.59,-15.92c0.01,-5.51 2.02,-10.81 5.67,-14.93l246.35,-277.718l108.203,108.229c1.465,1.465 3.384,2.197 5.304,2.197c1.919,0 3.838,-0.732 5.303,-2.196c1.615,-1.614 2.334,-3.781 2.169,-5.892c23.37,-0.52 46.141,-7.444 65.831,-20.161c2.079,1.051 4.393,1.631 6.74,1.631l0.061,0c3.92,0 7.77,-1.6 10.56,-4.39l21.221,-21.22c2.8,-2.79 4.399,-6.66 4.39,-10.6c0.007,-2.802 -0.81,-5.552 -2.277,-7.917c11.032,-18.764 17.058,-39.801 17.456,-61.2c0.406,-21.913 -4.996,-43.832 -15.623,-63.387zm-121.201,171.853l-101.268,-101.292c-2.098,-23.57 3.271,-47.011 15.251,-67.132c28.128,28.139 124.977,125.006 153.133,153.166c-20.115,11.983 -43.554,17.356 -67.116,15.258zm108.568,-58.648c-29.639,-29.65 -122.125,-122.154 -151.193,-151.228c16.13,-8.633 34.139,-13.173 52.627,-13.173c41.517,0 78.158,21.816 98.017,58.358c18.408,33.872 18.446,72.862 0.549,106.043z"/>
    </g>
   </g>
   <g stroke="null" transform="matrix(0.05940204314813595,0,0,0.06020231927012227,79.0886748035196,-95.95586987707449) " id="svg_44"/>
   <g stroke="null" transform="matrix(0.05940204314813595,0,0,0.06020231927012227,79.0886748035196,-95.95586987707449) " id="svg_45"/>
   <g stroke="null" transform="matrix(0.05940204314813595,0,0,0.06020231927012227,79.0886748035196,-95.95586987707449) " id="svg_46"/>
   <g stroke="null" transform="matrix(0.05940204314813595,0,0,0.06020231927012227,79.0886748035196,-95.95586987707449) " id="svg_47"/>
   <g stroke="null" transform="matrix(0.05940204314813595,0,0,0.06020231927012227,79.0886748035196,-95.95586987707449) " id="svg_48"/>
   <g stroke="null" transform="matrix(0.05940204314813595,0,0,0.06020231927012227,79.0886748035196,-95.95586987707449) " id="svg_49"/>
   <g stroke="null" transform="matrix(0.05940204314813595,0,0,0.06020231927012227,79.0886748035196,-95.95586987707449) " id="svg_50"/>
   <g stroke="null" transform="matrix(0.05940204314813595,0,0,0.06020231927012227,79.0886748035196,-95.95586987707449) " id="svg_51"/>
   <g stroke="null" transform="matrix(0.05940204314813595,0,0,0.06020231927012227,79.0886748035196,-95.95586987707449) " id="svg_52"/>
   <g stroke="null" transform="matrix(0.05940204314813595,0,0,0.06020231927012227,79.0886748035196,-95.95586987707449) " id="svg_53"/>
   <g stroke="null" transform="matrix(0.05940204314813595,0,0,0.06020231927012227,79.0886748035196,-95.95586987707449) " id="svg_54"/>
   <g stroke="null" transform="matrix(0.05940204314813595,0,0,0.06020231927012227,79.0886748035196,-95.95586987707449) " id="svg_55"/>
   <g stroke="null" transform="matrix(0.05940204314813595,0,0,0.06020231927012227,79.0886748035196,-95.95586987707449) " id="svg_56"/>
   <g stroke="null" transform="matrix(0.05940204314813595,0,0,0.06020231927012227,79.0886748035196,-95.95586987707449) " id="svg_57"/>
   <g stroke="null" transform="matrix(0.05940204314813595,0,0,0.06020231927012227,79.0886748035196,-95.95586987707449) " id="svg_58"/>
  </g>
  <g fill-opacity="0.15" stroke="null" id="svg_82">
   <g stroke="null" transform="matrix(0.07964053038976941,0,0,0.07817257924218037,193.9243801873019,187.23139834366376) " id="svg_64">
    <g stroke="null" id="svg_65">
     <path stroke-width="0" fill="#f40428" stroke="#ff0000" id="svg_66" d="m2131.23878,-1423.36933c-54.653,-52.945 -55.54,-116.791 -55.54,-117.414c0,-4.712 -3.824,-8.535 -8.535,-8.535c-4.712,0 -8.535,3.824 -8.535,8.535l0,94.71l0,261.552c-25.777,-26.144 -76.409,-31.3 -123.611,-9.867c-32.648,14.835 -58.101,40.006 -68.096,67.345c-6.521,17.848 -6.137,35.32 1.093,50.53c12.052,25.342 41.286,39.186 75.394,39.186c19.06,0 39.647,-4.327 59.595,-13.384c32.648,-14.835 58.109,-40.006 68.096,-67.345c4.114,-11.267 4.609,-22.662 4.609,-34.466c0,-6.402 0,-12.795 0,-19.196c0,-9.141 0,-18.283 0,-27.416c0,-10.917 0,-21.825 0,-32.742c0,-11.719 0,-23.438 0,-35.166c0,-11.566 0,-23.123 0,-34.688c0,-10.439 0,-20.869 0,-31.308c0,-8.348 0,-16.687 0,-25.035c0,-5.283 0,-10.567 0,-15.859c0,-1.374 0,-2.757 0,-4.131c8.988,19.666 22.628,41.278 43.667,61.66c43.335,41.977 49.583,66.449 50.257,75.027c0.35,4.456 4.071,7.861 8.501,7.861c0.111,0 0.222,0 0.341,-0.008c4.584,-0.179 8.194,-3.943 8.194,-8.527l0,-84.825c0.708,-6.632 1.237,-41.602 -55.43,-96.494z"/>
    </g>
   </g>
   <g stroke="null" transform="matrix(0.07964053038976941,0,0,0.07817257924218037,193.9243801873019,187.23139834366376) " id="svg_67"/>
   <g stroke="null" transform="matrix(0.07964053038976941,0,0,0.07817257924218037,193.9243801873019,187.23139834366376) " id="svg_68"/>
   <g stroke="null" transform="matrix(0.07964053038976941,0,0,0.07817257924218037,193.9243801873019,187.23139834366376) " id="svg_69"/>
   <g stroke="null" transform="matrix(0.07964053038976941,0,0,0.07817257924218037,193.9243801873019,187.23139834366376) " id="svg_70"/>
   <g stroke="null" transform="matrix(0.07964053038976941,0,0,0.07817257924218037,193.9243801873019,187.23139834366376) " id="svg_71"/>
   <g stroke="null" transform="matrix(0.07964053038976941,0,0,0.07817257924218037,193.9243801873019,187.23139834366376) " id="svg_72"/>
   <g stroke="null" transform="matrix(0.07964053038976941,0,0,0.07817257924218037,193.9243801873019,187.23139834366376) " id="svg_73"/>
   <g stroke="null" transform="matrix(0.07964053038976941,0,0,0.07817257924218037,193.9243801873019,187.23139834366376) " id="svg_74"/>
   <g stroke="null" transform="matrix(0.07964053038976941,0,0,0.07817257924218037,193.9243801873019,187.23139834366376) " id="svg_75"/>
   <g stroke="null" transform="matrix(0.07964053038976941,0,0,0.07817257924218037,193.9243801873019,187.23139834366376) " id="svg_76"/>
   <g stroke="null" transform="matrix(0.07964053038976941,0,0,0.07817257924218037,193.9243801873019,187.23139834366376) " id="svg_77"/>
   <g stroke="null" transform="matrix(0.07964053038976941,0,0,0.07817257924218037,193.9243801873019,187.23139834366376) " id="svg_78"/>
   <g stroke="null" transform="matrix(0.07964053038976941,0,0,0.07817257924218037,193.9243801873019,187.23139834366376) " id="svg_79"/>
   <g stroke="null" transform="matrix(0.07964053038976941,0,0,0.07817257924218037,193.9243801873019,187.23139834366376) " id="svg_80"/>
   <g stroke="null" transform="matrix(0.07964053038976941,0,0,0.07817257924218037,193.9243801873019,187.23139834366376) " id="svg_81"/>
  </g>
  <g fill-opacity="0.15" stroke="null" id="svg_111">
   <g stroke="null" transform="matrix(0.06934620972866481,0,0,0.0667644840588439,70.17073193891383,315.69953864436684) " id="svg_87">
    <g stroke="null" id="svg_88">
     <path stroke-width="0" fill="#f40428" stroke="#ff0000" id="svg_89" d="m2386.81937,-966.95895c-140.61,0 -256,114.39 -256,255l0,120c0,24.814 20.186,45 45,45l15,0l0,-150l-15,0c-5.284,0 -10.285,1.082 -15,2.763l0,-17.763c0,-124.072 101.928,-225 226,-225s226,100.928 226,225l0,17.763c-4.715,-1.681 -9.716,-2.763 -15,-2.763l-15,0l0,150l15,0c24.814,0 45,-20.186 45,-45l0,-120c0,-140.61 -115.39,-255 -256,-255z"/>
    </g>
   </g>
   <g stroke="null" transform="matrix(0.06934620972866481,0,0,0.0667644840588439,70.17073193891383,315.69953864436684) " id="svg_90">
    <g stroke="null" id="svg_91">
     <path stroke-width="0" fill="#f40428" stroke="#ff0000" id="svg_92" d="m2265.81937,-726.95895l-15,0c-16.569,0 -30,13.431 -30,30l0,150c0,16.569 13.431,30 30,30l15,0c8.284,0 15,-6.716 15,-15l0,-180c0,-8.284 -6.716,-15 -15,-15z"/>
    </g>
   </g>
   <g stroke="null" transform="matrix(0.06934620972866481,0,0,0.0667644840588439,70.17073193891383,315.69953864436684) " id="svg_93">
    <g stroke="null" id="svg_94">
     <path stroke-width="0" fill="#f40428" stroke="#ff0000" id="svg_95" d="m2522.81937,-726.95895l-15,0c-8.284,0 -15,6.716 -15,15l0,180c0,8.284 6.716,15 15,15l15,0c16.569,0 30,-13.431 30,-30l0,-150c0,-16.569 -13.431,-30 -30,-30z"/>
    </g>
   </g>
   <g stroke="null" transform="matrix(0.06934620972866481,0,0,0.0667644840588439,70.17073193891383,315.69953864436684) " id="svg_96"/>
   <g stroke="null" transform="matrix(0.06934620972866481,0,0,0.0667644840588439,70.17073193891383,315.69953864436684) " id="svg_97"/>
   <g stroke="null" transform="matrix(0.06934620972866481,0,0,0.0667644840588439,70.17073193891383,315.69953864436684) " id="svg_98"/>
   <g stroke="null" transform="matrix(0.06934620972866481,0,0,0.0667644840588439,70.17073193891383,315.69953864436684) " id="svg_99"/>
   <g stroke="null" transform="matrix(0.06934620972866481,0,0,0.0667644840588439,70.17073193891383,315.69953864436684) " id="svg_100"/>
   <g stroke="null" transform="matrix(0.06934620972866481,0,0,0.0667644840588439,70.17073193891383,315.69953864436684) " id="svg_101"/>
   <g stroke="null" transform="matrix(0.06934620972866481,0,0,0.0667644840588439,70.17073193891383,315.69953864436684) " id="svg_102"/>
   <g stroke="null" transform="matrix(0.06934620972866481,0,0,0.0667644840588439,70.17073193891383,315.69953864436684) " id="svg_103"/>
   <g stroke="null" transform="matrix(0.06934620972866481,0,0,0.0667644840588439,70.17073193891383,315.69953864436684) " id="svg_104"/>
   <g stroke="null" transform="matrix(0.06934620972866481,0,0,0.0667644840588439,70.17073193891383,315.69953864436684) " id="svg_105"/>
   <g stroke="null" transform="matrix(0.06934620972866481,0,0,0.0667644840588439,70.17073193891383,315.69953864436684) " id="svg_106"/>
   <g stroke="null" transform="matrix(0.06934620972866481,0,0,0.0667644840588439,70.17073193891383,315.69953864436684) " id="svg_107"/>
   <g stroke="null" transform="matrix(0.06934620972866481,0,0,0.0667644840588439,70.17073193891383,315.69953864436684) " id="svg_108"/>
   <g stroke="null" transform="matrix(0.06934620972866481,0,0,0.0667644840588439,70.17073193891383,315.69953864436684) " id="svg_109"/>
   <g stroke="null" transform="matrix(0.06934620972866481,0,0,0.0667644840588439,70.17073193891383,315.69953864436684) " id="svg_110"/>
  </g>
  <g fill-opacity="0.15" stroke="null" id="svg_128">
   <path stroke-width="0" fill="#f40428" stroke="#ff0000" id="svg_127" d="m293.59567,176.81549c-2.42777,-1.10555 -5.06368,-1.46532 -7.64917,-1.04689l0,-1.80704l-0.94021,0.30562c-3.09755,1.00833 -5.70501,3.48403 -7.17205,6.72357l0,-7.84677c0,-1.71966 0.67626,-3.32199 1.85486,-4.39637c0.87323,-0.79583 1.96973,-1.23354 3.08783,-1.23354l0.21966,0c1.37017,0 2.51564,-1.0752 2.84512,-2.52042l0.04573,0c1.44615,0 2.89266,0.20265 4.29667,0.60262l1.66221,0.47381l0,-1.07643c0,-2.39243 -1.05148,-4.54651 -2.7443,-5.83462c0.16168,-0.1444 0.31869,-0.29577 0.46489,-0.46191c0.99387,-1.13263 1.54193,-2.63897 1.54193,-4.24049c0,-1.46081 -0.20562,-2.90439 -0.61144,-4.28889l-0.46957,-1.60521l-1.175,0.89224c-0.88476,0.67113 -1.89015,1.06945 -2.93731,1.19785c0.01116,-0.13784 0.03097,-0.27321 0.03097,-0.41351l0,-0.97018c0,-1.41732 -0.41159,-2.82193 -1.15771,-3.9562c-0.89088,-1.35415 -2.31074,-2.1627 -3.79578,-2.1627c-0.73316,0 -1.46703,0.19773 -2.12169,0.57062l-0.2996,0.17065l-1.52789,-0.8705l-0.97082,0.73676c-1.4267,1.08299 -3.25816,1.36194 -4.88183,0.74456l-1.84298,-0.69984l-1.86062,4.23843c-0.31148,0.70969 -0.51566,1.47763 -0.62333,2.26157c-0.53618,-0.20839 -1.04788,-0.48735 -1.52429,-0.84957l-1.175,-0.89183l-0.46957,1.60521c-0.40511,1.38533 -0.61072,2.82891 -0.61072,4.29053c0,1.60234 0.54807,3.10786 1.54193,4.24049c0.1462,0.16614 0.3032,0.31751 0.46489,0.46191c-1.69246,1.28892 -2.7443,3.44219 -2.7443,5.83462l0,1.07643l1.66221,-0.47299c1.40438,-0.40079 2.85053,-0.60344 4.29667,-0.60344l1.06949,0c0.07814,0.18419 0.16492,0.36469 0.26611,0.53698c0.72632,1.24175 1.94308,1.98343 3.25383,1.98343c1.40042,0 2.66003,0.88649 3.28624,2.31407l0.17753,0.40489l0,5.71688c-1.46739,-3.23954 -4.07522,-5.71524 -7.17205,-6.72357l-0.94021,-0.30562l0,1.80704c-2.58478,-0.41843 -5.2214,-0.05866 -7.64918,1.04689l-0.68418,0.31259l0.52358,1.49199c0.73136,2.08353 2.01186,3.84011 3.65498,5.04083l-1.45947,1.66264l1.70578,1.16627c1.94164,1.32707 4.1638,2.02774 6.42629,2.02774c1.34424,0 2.67336,-0.24531 3.94918,-0.72979l1.64528,-0.62518l0,12.27678l1.47496,0l0,-7.23594l1.64456,0.62436c1.27654,0.48529 2.60566,0.73061 3.9499,0.73061c2.26249,0 4.48536,-0.70066 6.42629,-2.02774l1.70614,-1.16627l-1.45947,-1.66264c1.64276,-1.20155 2.92255,-2.95731 3.65462,-5.04165l0.52358,-1.49198l-0.68418,-0.31177zm-3.32297,-12.92411c-1.43679,-0.38397 -2.9103,-0.57801 -4.38526,-0.57801l-0.04573,0c-0.17897,-0.78435 -0.59344,-1.45917 -1.16059,-1.91205c0.76485,-0.49965 1.58119,-0.88198 2.44038,-1.1273c0.157,-0.04471 0.30752,-0.1083 0.45912,-0.16901c1.40006,0.71174 2.38888,2.11799 2.69208,3.78637zm-12.59762,-8.03055c1.10154,-0.62108 2.31254,-0.94885 3.55524,-0.94885l0.61432,0c0.33489,0 0.66906,-0.04677 0.99495,-0.13948c0.27944,-0.07958 0.54051,-0.19978 0.79185,-0.33843c-0.22254,2.23162 -0.83542,4.39391 -1.8066,6.35888l-0.6867,0l-3.46305,-4.93212zm-3.52823,-2.33417l0,0.54519l-0.17609,0c-1.02808,0 -1.98161,-0.58129 -2.55165,-1.55598c-0.14476,-0.24777 -0.22146,-0.53575 -0.22146,-0.83398c0,-0.40161 0.1372,-0.77902 0.38638,-1.06289l0.28988,-0.33023l2.27293,3.2379zm-1.47496,2.00148c0.41663,0.14194 0.85199,0.22398 1.29887,0.22398l0.17609,0l0,1.57895c0,0.61821 0.10047,1.21796 0.28232,1.7816l-1.75727,0l0,-3.58454zm1.47784,-4.68722c0.00288,-0.35648 0.03169,-0.70928 0.0767,-1.05797c1.56786,1.66961 3.44324,2.89126 5.47599,3.59274c-1.0378,0.19157 -2.03707,0.57883 -2.96612,1.1474l-2.58657,-3.68217zm3.10619,-0.53698l0.36154,-1.23477c1.32444,0.19239 2.47927,1.1154 3.08855,2.5036l0.19013,0.4332c-1.28663,-0.34418 -2.51384,-0.91972 -3.64022,-1.70202zm-1.63412,5.32307l3.62761,5.16595l-0.5884,0c-0.81202,0 -1.57542,-0.36018 -2.14906,-1.01407c-0.57363,-0.65349 -0.89016,-1.52398 -0.89016,-2.44781l0,-1.70407zm13.60445,-4.46037c0.27043,1.06986 0.40763,2.17378 0.40763,3.29c0,1.15355 -0.39467,2.23736 -1.10982,3.05248c-0.48613,0.55257 -1.09433,0.94516 -1.76051,1.13509c-1.045,0.29823 -2.03383,0.77368 -2.95567,1.39681c0.87323,-2.2431 1.34568,-4.66589 1.38997,-7.13092c0.10623,-0.17311 0.20598,-0.35115 0.2906,-0.53944c1.31867,-0.0521 2.5981,-0.45371 3.7378,-1.20401zm-12.33439,-6.01019l0.25819,-0.1965l1.42166,0.80978l0.95858,-0.54601c0.45156,-0.25721 0.9575,-0.3934 1.46271,-0.3934c1.02412,0 2.00214,0.55708 2.61646,1.49075c0.55527,0.84424 0.86207,1.89195 0.86207,2.94787l0,0.971c0,0.8344 -0.30464,1.59905 -0.80302,2.14834c-0.32913,-0.00164 -0.65574,-0.02749 -0.98162,-0.05948l-0.6615,-1.50716c-0.93949,-2.14096 -2.8282,-3.47091 -4.92864,-3.47091l-0.53186,0l-0.56931,1.94528c-0.46452,-0.42007 -0.90564,-0.87665 -1.31687,-1.37384c0.28232,-0.76958 0.6723,-1.48788 1.16419,-2.12537c0.36298,-0.18337 0.71623,-0.38848 1.04896,-0.64036zm-8.08417,3.63705l1.28807,-2.93556l0.62909,0.23875c0.94922,0.36018 1.95461,0.46766 2.93911,0.35608c-0.3763,0.79748 -0.65069,1.65074 -0.81274,2.53888l-0.85559,-1.21796l-1.45515,1.65731c-0.5279,0.6018 -0.8185,1.40051 -0.8185,2.2509c0,0.6301 0.1624,1.24175 0.46921,1.76601c0.27799,0.47463 0.62153,0.8787 1.00575,1.21714l0,2.24844l-0.01621,-0.00943c-1.80985,-1.03089 -2.93371,-3.10252 -2.93371,-5.40716c0,-0.93326 0.19409,-1.86816 0.56067,-2.70338zm-4.24806,5.66314c0,-1.1154 0.1372,-2.22013 0.40799,-3.28918c0.5794,0.38069 1.19444,0.674 1.83829,0.87993c0.16817,2.7202 1.5495,5.12575 3.71548,6.3597l0.67554,0.38479l0,0.59729c-0.32661,0.14522 -0.62297,0.35033 -0.89376,0.59565c-0.89916,-0.59647 -1.86062,-1.05264 -2.87393,-1.34061c-0.66582,-0.18993 -1.27438,-0.58252 -1.76051,-1.13509c-0.71443,-0.81594 -1.1091,-1.89975 -1.1091,-3.05248zm3.74645,8.85674c-1.47496,0 -2.94919,0.19404 -4.3849,0.57801c0.30284,-1.6692 1.29203,-3.07545 2.691,-3.78719c0.15196,0.0603 0.30284,0.1243 0.4602,0.16983c0.8023,0.22849 1.57002,0.57554 2.2913,1.0272c-0.23442,0.53206 -0.37918,1.1236 -0.37918,1.75781c0,0.08574 0.01188,0.16983 0.0162,0.25434l-0.69463,0zm4.58943,2.52042c-0.81634,0 -1.57398,-0.46191 -2.02662,-1.2356c-0.26791,-0.45699 -0.40943,-0.98987 -0.40943,-1.53916c0,-1.24954 0.89232,-2.26608 1.98917,-2.26608l2.88185,0c0.04645,0.05825 0.0893,0.11855 0.13864,0.17394c0.85271,0.97141 1.98593,1.50634 3.1919,1.50634l4.33556,0c0.81346,0 1.47496,0.75358 1.47496,1.68028s-0.6615,1.68028 -1.47496,1.68028l-0.21966,0c-1.45227,0 -2.87537,0.56898 -4.00896,1.60234c-0.50666,0.46191 -0.93445,1.00464 -1.28987,1.597c-0.8844,-1.97359 -2.63447,-3.19934 -4.58259,-3.19934zm1.35252,15.31859c-3.01869,1.1474 -6.42053,0.72076 -9.15006,-1.14453l-0.08606,-0.05866l1.53005,-1.74427l-0.91501,-0.52181c-1.7155,-0.97674 -3.05758,-2.62256 -3.78858,-4.64004c2.09288,-0.80568 4.33124,-1.01325 6.51703,-0.59729l1.36657,0.26131l0,-1.49978c2.58874,1.16955 4.6935,3.53449 5.73382,6.49877l0.37342,1.0633l-0.22434,-0.19896c-3.17497,-2.81373 -6.96247,-4.60066 -10.9545,-5.16841l-0.18293,1.66674c3.72808,0.53083 7.26639,2.20044 10.23179,4.82834l0.85631,0.7585l-1.30751,0.49678zm14.31889,1.57239l-0.91537,0.52181l1.53041,1.74427l-0.0857,0.05866c-2.72953,1.86529 -6.12993,2.29192 -9.15042,1.14453l-1.30859,-0.49678l0.85631,-0.7585c2.9654,-2.62789 6.50371,-4.29751 10.23179,-4.82834l-0.18293,-1.66674c-3.99131,0.56775 -7.77881,2.35551 -10.9545,5.16841l-0.22398,0.19814l0.37378,-1.0633c1.04068,-2.9651 3.14544,-5.32922 5.73382,-6.49877l0,1.49978l1.36657,-0.25967c2.18651,-0.41474 4.42487,-0.20839 6.51703,0.59729c-0.73064,2.01748 -2.0738,3.66248 -3.78822,4.63922zm0,0"/>
  </g>
  <g fill-opacity="0.15" stroke="null" id="svg_151">
   <g stroke="null" transform="matrix(0.06304582476944617,0,0,0.06487845759444642,15.281676425488115,128.23525481527668) " id="svg_133">
    <g stroke="null" id="svg_134">
     <path stroke-width="0" fill="#f40428" stroke="#ff0000" id="svg_135" d="m912.59285,-1253.35836c-25.253,-28.654 -60.286,-44.434 -98.644,-44.434c-53.948,0 -88.103,32.22 -107.255,59.25c-4.969,7.014 -9.196,14.047 -12.745,20.665c-3.549,-6.618 -7.775,-13.651 -12.745,-20.665c-19.152,-27.03 -53.307,-59.25 -107.255,-59.25c-38.358,0 -73.391,15.781 -98.645,44.435c-24.088,27.334 -37.355,63.942 -37.355,103.08c0,42.603 16.633,82.228 52.345,124.7c31.917,37.96 77.834,77.088 131.005,122.397c19.813,16.884 40.302,34.344 62.115,53.429l0.655,0.574c2.828,2.476 6.354,3.713 9.88,3.713s7.052,-1.238 9.88,-3.713l0.655,-0.574c21.813,-19.085 42.302,-36.544 62.118,-53.431c53.168,-45.306 99.085,-84.434 131.002,-122.395c35.712,-42.473 52.345,-82.097 52.345,-124.7c0,-39.138 -13.267,-75.746 -37.356,-103.081zm-165.451,327.344c-17.08,14.554 -34.658,29.533 -53.193,45.646c-18.534,-16.111 -36.113,-31.091 -53.196,-45.648c-104.059,-88.673 -172.804,-147.254 -172.804,-224.261c0,-31.83 10.605,-61.394 29.862,-83.245c19.478,-22.099 46.517,-34.27 76.138,-34.27c41.129,0 67.716,25.338 82.776,46.594c13.509,19.064 20.558,38.282 22.962,45.659c2.011,6.175 7.768,10.354 14.262,10.354c6.494,0 12.251,-4.179 14.262,-10.354c2.404,-7.377 9.453,-26.595 22.962,-45.66c15.06,-21.255 41.647,-46.593 82.776,-46.593c29.621,0 56.66,12.171 76.137,34.27c19.258,21.851 29.863,51.415 29.863,83.245c0,77.007 -68.745,135.588 -172.807,224.263z"/>
    </g>
   </g>
   <g stroke="null" transform="matrix(0.06304582476944617,0,0,0.06487845759444642,15.281676425488115,128.23525481527668) " id="svg_136"/>
   <g stroke="null" transform="matrix(0.06304582476944617,0,0,0.06487845759444642,15.281676425488115,128.23525481527668) " id="svg_137"/>
   <g stroke="null" transform="matrix(0.06304582476944617,0,0,0.06487845759444642,15.281676425488115,128.23525481527668) " id="svg_138"/>
   <g stroke="null" transform="matrix(0.06304582476944617,0,0,0.06487845759444642,15.281676425488115,128.23525481527668) " id="svg_139"/>
   <g stroke="null" transform="matrix(0.06304582476944617,0,0,0.06487845759444642,15.281676425488115,128.23525481527668) " id="svg_140"/>
   <g stroke="null" transform="matrix(0.06304582476944617,0,0,0.06487845759444642,15.281676425488115,128.23525481527668) " id="svg_141"/>
   <g stroke="null" transform="matrix(0.06304582476944617,0,0,0.06487845759444642,15.281676425488115,128.23525481527668) " id="svg_142"/>
   <g stroke="null" transform="matrix(0.06304582476944617,0,0,0.06487845759444642,15.281676425488115,128.23525481527668) " id="svg_143"/>
   <g stroke="null" transform="matrix(0.06304582476944617,0,0,0.06487845759444642,15.281676425488115,128.23525481527668) " id="svg_144"/>
   <g stroke="null" transform="matrix(0.06304582476944617,0,0,0.06487845759444642,15.281676425488115,128.23525481527668) " id="svg_145"/>
   <g stroke="null" transform="matrix(0.06304582476944617,0,0,0.06487845759444642,15.281676425488115,128.23525481527668) " id="svg_146"/>
   <g stroke="null" transform="matrix(0.06304582476944617,0,0,0.06487845759444642,15.281676425488115,128.23525481527668) " id="svg_147"/>
   <g stroke="null" transform="matrix(0.06304582476944617,0,0,0.06487845759444642,15.281676425488115,128.23525481527668) " id="svg_148"/>
   <g stroke="null" transform="matrix(0.06304582476944617,0,0,0.06487845759444642,15.281676425488115,128.23525481527668) " id="svg_149"/>
   <g stroke="null" transform="matrix(0.06304582476944617,0,0,0.06487845759444642,15.281676425488115,128.23525481527668) " id="svg_150"/>
  </g>
  <g fill-opacity="0.15" stroke="null" id="svg_174">
   <g stroke="null" transform="matrix(0.09946967757483613,0,0,0.11290414841357312,55.2712956182087,221.29396267003978) " id="svg_156">
    <g stroke="null" id="svg_157">
     <path stroke-width="0" fill="#f40428" stroke="#ff0000" id="svg_158" d="m252.38528,422.26189c-0.027,0 -0.054,0 -0.08,0l0,0l-27.12,0l0,-9.28c0.146,-3.673 -2.23,-6.974 -5.76,-8c-18.828,-4.934 -38.216,-7.408 -57.68,-7.36c-32,0 -75.6,7.2 -107.84,40c-32,-33.12 -75.92,-40 -107.84,-40c-19.464,-0.048 -38.852,2.426 -57.68,7.36c-3.53,1.026 -5.906,4.327 -5.76,8l0,9.2l-26.96,0c-4.418,0 -8,3.582 -8,8l0,255.52c0,4.418 3.582,8 8,8c1.374,-0.004 2.724,-0.362 3.92,-1.04c0.8,-0.4 80.8,-44.16 192.48,-16l1.2,0l0.72,0c0.638,0.077 1.282,0.077 1.92,0c112,-28.4 192,15.28 192.48,16c2.475,1.429 5.525,1.429 8,0c2.46,-1.42 3.983,-4.039 4,-6.88l0,-255.52c0,-4.418 -3.581,-8 -8,-8zm-388.72,250.72l0,-234.72l19.12,0l0,200.64c-0.05,4.418 3.491,8.04 7.909,8.09c0.432,0.005 0.864,-0.025 1.291,-0.09c16.55,-2.527 33.259,-3.864 50,-4c23.19,-0.402 46.283,3.086 68.32,10.32c-49.765,-6.018 -100.243,0.784 -146.64,19.76zm78.32,-46c-14.551,0.033 -29.085,0.968 -43.52,2.8l0,-210.48c15.576,-3.47 31.482,-5.241 47.44,-5.28c29.92,0 71.2,6.88 99.84,39.2l0.24,199.28c-16.64,-10.88 -49.12,-25.52 -104,-25.52zm120,-173.76c28.64,-32 69.92,-39.2 99.84,-39.2c15.957,0.047 31.863,1.817 47.44,5.28l0,210.48c-14.354,-1.849 -28.808,-2.811 -43.28,-2.88c-54.56,0 -87.12,14.64 -104,25.52l0,-199.2zm182.32,219.76c-46.496,-19.028 -97.09,-25.831 -146.96,-19.76c22.141,-7.26 45.344,-10.749 68.64,-10.32c16.846,0.094 33.663,1.404 50.32,3.92c4.368,0.663 8.447,-2.341 9.11,-6.709c0.065,-0.427 0.095,-0.859 0.09,-1.291l0,-200.56l19.12,0l-0.32,234.72z"/>
    </g>
   </g>
   <g stroke="null" transform="matrix(0.09946967757483613,0,0,0.11290414841357312,55.2712956182087,221.29396267003978) " id="svg_159"/>
   <g stroke="null" transform="matrix(0.09946967757483613,0,0,0.11290414841357312,55.2712956182087,221.29396267003978) " id="svg_160"/>
   <g stroke="null" transform="matrix(0.09946967757483613,0,0,0.11290414841357312,55.2712956182087,221.29396267003978) " id="svg_161"/>
   <g stroke="null" transform="matrix(0.09946967757483613,0,0,0.11290414841357312,55.2712956182087,221.29396267003978) " id="svg_162"/>
   <g stroke="null" transform="matrix(0.09946967757483613,0,0,0.11290414841357312,55.2712956182087,221.29396267003978) " id="svg_163"/>
   <g stroke="null" transform="matrix(0.09946967757483613,0,0,0.11290414841357312,55.2712956182087,221.29396267003978) " id="svg_164"/>
   <g stroke="null" transform="matrix(0.09946967757483613,0,0,0.11290414841357312,55.2712956182087,221.29396267003978) " id="svg_165"/>
   <g stroke="null" transform="matrix(0.09946967757483613,0,0,0.11290414841357312,55.2712956182087,221.29396267003978) " id="svg_166"/>
   <g stroke="null" transform="matrix(0.09946967757483613,0,0,0.11290414841357312,55.2712956182087,221.29396267003978) " id="svg_167"/>
   <g stroke="null" transform="matrix(0.09946967757483613,0,0,0.11290414841357312,55.2712956182087,221.29396267003978) " id="svg_168"/>
   <g stroke="null" transform="matrix(0.09946967757483613,0,0,0.11290414841357312,55.2712956182087,221.29396267003978) " id="svg_169"/>
   <g stroke="null" transform="matrix(0.09946967757483613,0,0,0.11290414841357312,55.2712956182087,221.29396267003978) " id="svg_170"/>
   <g stroke="null" transform="matrix(0.09946967757483613,0,0,0.11290414841357312,55.2712956182087,221.29396267003978) " id="svg_171"/>
   <g stroke="null" transform="matrix(0.09946967757483613,0,0,0.11290414841357312,55.2712956182087,221.29396267003978) " id="svg_172"/>
   <g stroke="null" transform="matrix(0.09946967757483613,0,0,0.11290414841357312,55.2712956182087,221.29396267003978) " id="svg_173"/>
  </g>
  <g fill-opacity="0.15" stroke="null" id="svg_200">
   <g stroke="null" transform="matrix(0.05525655503431774,0,0,0.0819470148533149,227.96895875813033,278.8911651333368) " id="svg_179">
    <g stroke="null" id="svg_180">
     <path stroke-width="0" fill="#f40428" stroke="#ff0000" id="svg_181" d="m3298.94484,-784.19084c-4.181,-4.075 -10.923,-4.032 -15.083,0.171c-90.923,92.736 -151.851,164.864 -194.112,259.093c-2.411,5.376 -0.021,11.691 5.355,14.101c1.429,0.64 2.922,0.939 4.373,0.939c4.053,0 7.957,-2.347 9.749,-6.315c40.96,-91.328 100.629,-161.877 189.888,-252.907c4.118,-4.181 4.032,-10.965 -0.17,-15.082z"/>
    </g>
   </g>
   <g stroke="null" transform="matrix(0.05525655503431774,0,0,0.0819470148533149,227.96895875813033,278.8911651333368) " id="svg_182">
    <g stroke="null" id="svg_183">
     <path stroke-width="0" fill="#f40428" stroke="#ff0000" id="svg_184" d="m3547.47784,-1021.88684c-229.376,0 -416,186.624 -416,416c0,5.888 4.779,10.667 10.667,10.667c153.216,0 293.611,-83.904 366.421,-218.944c1.771,-3.307 1.685,-7.317 -0.235,-10.517c-1.941,-3.221 -5.419,-5.205 -9.173,-5.205l-39.509,0l70.848,-40.491c2.261,-1.28 3.968,-3.349 4.8,-5.803c15.168,-44.139 22.848,-89.579 22.848,-135.04c0,-5.888 -4.779,-10.667 -10.667,-10.667zm-31.082,134.997l-102.208,58.39c-4.203,2.432 -6.251,7.339 -5.013,12.011c1.237,4.693 5.461,7.936 10.304,7.936l61.333,0c-69.377,115.818 -192.747,188.181 -327.851,191.85c5.632,-209.045 174.634,-378.048 383.701,-383.701c-1.088,38.186 -7.893,76.309 -20.266,113.514z"/>
    </g>
   </g>
   <g stroke="null" transform="matrix(0.05525655503431774,0,0,0.0819470148533149,227.96895875813033,278.8911651333368) " id="svg_185"/>
   <g stroke="null" transform="matrix(0.05525655503431774,0,0,0.0819470148533149,227.96895875813033,278.8911651333368) " id="svg_186"/>
   <g stroke="null" transform="matrix(0.05525655503431774,0,0,0.0819470148533149,227.96895875813033,278.8911651333368) " id="svg_187"/>
   <g stroke="null" transform="matrix(0.05525655503431774,0,0,0.0819470148533149,227.96895875813033,278.8911651333368) " id="svg_188"/>
   <g stroke="null" transform="matrix(0.05525655503431774,0,0,0.0819470148533149,227.96895875813033,278.8911651333368) " id="svg_189"/>
   <g stroke="null" transform="matrix(0.05525655503431774,0,0,0.0819470148533149,227.96895875813033,278.8911651333368) " id="svg_190"/>
   <g stroke="null" transform="matrix(0.05525655503431774,0,0,0.0819470148533149,227.96895875813033,278.8911651333368) " id="svg_191"/>
   <g stroke="null" transform="matrix(0.05525655503431774,0,0,0.0819470148533149,227.96895875813033,278.8911651333368) " id="svg_192"/>
   <g stroke="null" transform="matrix(0.05525655503431774,0,0,0.0819470148533149,227.96895875813033,278.8911651333368) " id="svg_193"/>
   <g stroke="null" transform="matrix(0.05525655503431774,0,0,0.0819470148533149,227.96895875813033,278.8911651333368) " id="svg_194"/>
   <g stroke="null" transform="matrix(0.05525655503431774,0,0,0.0819470148533149,227.96895875813033,278.8911651333368) " id="svg_195"/>
   <g stroke="null" transform="matrix(0.05525655503431774,0,0,0.0819470148533149,227.96895875813033,278.8911651333368) " id="svg_196"/>
   <g stroke="null" transform="matrix(0.05525655503431774,0,0,0.0819470148533149,227.96895875813033,278.8911651333368) " id="svg_197"/>
   <g stroke="null" transform="matrix(0.05525655503431774,0,0,0.0819470148533149,227.96895875813033,278.8911651333368) " id="svg_198"/>
   <g stroke="null" transform="matrix(0.05525655503431774,0,0,0.0819470148533149,227.96895875813033,278.8911651333368) " id="svg_199"/>
  </g>
  <g fill-opacity="0.15" stroke="null" id="svg_208">
   <g stroke="null" transform="matrix(0.08442292526770372,0,0,0.10066354642539772,118.51050422113985,244.21223473472128) " id="svg_205">
    <path stroke-width="0" fill="#f40428" stroke="#ff0000" id="svg_206" d="m3041.5805,1023.32748l0,-8.015c0,-4.142 -3.358,-7.5 -7.5,-7.5s-7.5,3.358 -7.5,7.5l0,8.015c0,4.143 3.358,7.5 7.5,7.5s7.5,-3.357 7.5,-7.5z"/>
    <path stroke-width="0" fill="#f40428" stroke="#ff0000" id="svg_207" d="m3091.0595,905.43748c1.577,0.154 3.163,0.257 4.765,0.257c12.582,0 25.721,-4.694 36.418,-13.374c14.441,-11.717 22.689,-29.282 21.525,-45.841c-0.221,-3.149 -2.39,-5.822 -5.426,-6.688c-15.965,-4.549 -34.852,-0.097 -49.292,11.62c-6.152,4.992 -11.168,11.051 -14.823,17.636c-1.271,-8.031 -2.33,-15.846 -3.115,-23.326c-0.432,-4.119 -4.125,-7.107 -8.241,-6.677c-4.12,0.432 -7.109,4.122 -6.677,8.241c2.221,21.177 6.456,44.659 11.656,68.255c-7.607,-5.347 -16.713,-9.089 -26.481,-10.621c-19.243,-3.018 -38.684,2.877 -50.739,15.382c-2.191,2.272 -2.724,5.674 -1.334,8.508c7.648,15.597 24.352,27.16 43.593,30.179c3.333,0.522 6.67,0.778 9.976,0.778c12.173,0 23.882,-3.478 33.181,-9.809c6.154,24.204 12.799,47.359 18.75,66.979l-25.113,-15.067c-5.071,-15.157 -19.394,-26.115 -36.248,-26.115c-21.731,0 -42.251,7.828 -58.373,22.125l-223.55,-108.201c-2.335,-1.13 -5.087,-0.973 -7.279,0.414c-2.191,1.387 -3.511,3.808 -3.488,6.401c0.012,1.376 0.419,28.413 12.425,55.523l-111.257,-39.938c-2.657,-0.954 -5.625,-0.335 -7.68,1.603c-2.054,1.937 -2.847,4.864 -2.05,7.572c0.428,1.455 10.801,36.003 38.607,67.929c4.252,4.882 9.058,9.843 14.44,14.671c7.134,21.05 24.72,58.763 62.128,75.21c9.832,4.323 20.385,6.941 31.617,7.873c4.907,7.514 21.344,29.405 48.845,34.022c3.414,0.573 6.853,0.859 10.322,0.859c20.135,0 41.175,-9.644 62.688,-28.767c3.096,-2.751 3.375,-7.492 0.623,-10.588s-7.492,-3.374 -10.588,-0.623c-21.608,19.208 -41.941,27.399 -60.437,24.346c-14.817,-2.446 -25.837,-11.79 -32.505,-19.241c18.721,-1.428 39.06,-6.984 60.897,-16.69c3.785,-1.682 5.49,-6.114 3.808,-9.899s-6.115,-5.49 -9.899,-3.808c-39.372,17.499 -72.792,20.454 -99.332,8.785c-21.576,-9.487 -35.572,-27.468 -44.365,-43.92c26.424,15.718 61.853,25.456 107.973,17.317c4.079,-0.72 6.802,-4.61 6.083,-8.689c-0.72,-4.08 -4.615,-6.8 -8.689,-6.083c-53.549,9.451 -97.948,-5.435 -131.96,-44.242c-15.087,-17.214 -24.757,-35.613 -30.208,-47.995l282.839,101.532c11.434,4.104 24.373,1.207 32.962,-7.384l13.694,-13.694c13.812,-13.812 32.176,-21.419 51.726,-21.419c12.794,0 23.204,10.409 23.204,23.204l0,0.501c0,12.041 -7.223,22.713 -18.412,27.193c-12.651,5.065 -22.149,15.576 -26.058,28.835c-17.195,58.322 -44.67,95.82 -81.662,111.455c-16.283,6.882 -60.733,19.427 -121.657,-12.629c-7.252,-3.815 -16.134,-3.481 -23.183,0.87l-62.338,38.49c-2.187,-6.342 -3.682,-13.653 -4.277,-22.082c-0.257,-3.639 1.698,-6.955 4.981,-8.447l78.726,-35.784c3.771,-1.714 5.438,-6.161 3.724,-9.932s-6.162,-5.438 -9.931,-3.724l-78.726,35.784c-8.909,4.05 -14.43,13.357 -13.737,23.16c0.91,12.883 4.535,31.564 16.634,47.401c14.564,19.062 37.08,28.718 66.948,28.718c0.698,0 1.401,-0.005 2.106,-0.016c8.864,-0.133 16.829,-5.132 20.786,-13.046l26.728,-53.456c14.665,4.556 31.914,8.083 50.2,8.082c15.849,-0.001 32.478,-2.65 48.854,-9.571c41.332,-17.469 71.683,-58.188 90.21,-121.029c2.602,-8.825 8.888,-15.806 17.257,-19.157c5.293,-2.119 9.999,-5.157 13.967,-8.89l43.963,-7.327c6.306,19.837 10.836,32.867 11.419,34.533c1.081,3.091 3.98,5.027 7.08,5.027c0.821,0 1.656,-0.136 2.475,-0.422c3.91,-1.366 5.972,-5.645 4.605,-9.555c-0.371,-1.061 -29.52,-84.919 -46.278,-163.504zm17.441,-42.377c9.006,-7.307 20.125,-10.864 30.181,-9.885c-1.112,10.04 -6.884,20.19 -15.891,27.498c-9.006,7.307 -20.122,10.866 -30.181,9.885c1.113,-10.04 6.885,-20.191 15.891,-27.498zm-63.288,81.11c-12.34,-1.936 -23.191,-8.33 -29.553,-17.152c8.757,-6.45 21.046,-9.214 33.385,-7.278c12.34,1.936 23.19,8.329 29.553,17.151c-8.757,6.449 -21.043,9.214 -33.385,7.279zm-95.076,74.963l-165.905,-59.556c-11.271,-17.37 -15.69,-37.824 -17.402,-50.661l206.831,100.108l-6.236,6.235c-4.505,4.507 -11.29,6.027 -17.288,3.874zm-210.216,203.11l63.643,-39.296c2.554,-1.577 5.74,-1.714 8.317,-0.358c0.025,0.013 0.052,0.027 0.077,0.04l-50.206,58.67c-8.26,-4.026 -15.955,-10.083 -21.831,-19.056zm67.242,21.755c-1.421,2.841 -4.401,4.708 -7.594,4.755c-6.635,0.101 -14.52,-0.376 -22.577,-2.193l48.979,-57.237c2.23,0.967 4.589,1.945 7.07,2.917l-25.878,51.758zm271.847,-214.389c1.075,-2.976 1.836,-6.089 2.256,-9.297l11.635,6.981l-13.891,2.316z"/>
   </g>
  </g>
  <g fill-opacity="0.15" stroke="null" id="svg_233">
   <g stroke="null" transform="matrix(0.08132481861973988,0,0,0.09462158687893255,115.08206484596377,327.40541696988686) " id="svg_213">
    <g stroke="null" id="svg_214">
     <g stroke="null" id="svg_215">
      <path stroke-width="0" fill="#f40428" stroke="#ff0000" id="svg_216" d="m419.79795,580.98512l-26.8,0l0,-28.8c0,-5.2 -2.4,-10 -5.6,-13.2c-3.6,-3.6 -8,-5.6 -13.2,-5.6l-79.2,0c-4.8,0 -9.6,2 -12.8,5.2c-3.6,3.6 -5.6,8 -5.6,13.2l0,28.8l-26.8,0c-7.6,0 -14.4,3.2 -19.2,8c-4.8,4.8 -8,11.6 -8,19.2l0,82.8c0,7.6 3.2,14.4 8,19.2s11.6,8 19.2,8l170,0c7.6,0 14.4,-3.2 19.2,-8s8,-11.6 8,-19.2l0,-82.4c0,-7.6 -3.2,-14.4 -8,-19.2s-11.6,-8 -19.2,-8zm-129.2,-29.2c0,-1.2 0.4,-2.4 1.2,-3.2s2,-1.2 3.2,-1.2l79.2,0c1.2,0 2.4,0.4 3.6,1.2c0.8,0.8 1.2,2 1.2,3.2l0,28.8l-88.4,0l0,-28.8zm-54,56c0,-3.6 1.6,-6.8 4,-9.2c2.4,-2.4 5.6,-4 9.2,-4l170,0c3.6,0 6.8,1.6 9.2,4c1.2,0.8 2,2.4 2.8,3.6c-14,2.8 -32.8,9.2 -53.6,16.4c-56.8,19.2 -129.2,44 -141.6,12l0,-22.8zm196.4,82.4c0,3.6 -1.6,6.8 -4,9.2c-2.4,2.4 -5.6,4 -9.2,4l-170,0c-3.6,0 -7.2,-1.6 -9.2,-4c-2.4,-2.4 -4,-5.6 -4,-9.2l0,-38.4c29.6,19.2 94,-2.8 146,-20.4c19.6,-6.8 37.6,-12.8 50.4,-15.6l0,74.4z"/>
      <path stroke-width="0" fill="#f40428" stroke="#ff0000" id="svg_217" d="m530.59795,318.18512c-2,-2 -5.2,-2.8 -7.6,-1.6c-28,8.4 -59.6,22.8 -87.6,40.4c-14,8.8 -26.8,18.4 -38.4,28.4c-1.6,0.8 -2.4,1.6 -3.2,2.8c-7.2,6.8 -14,14 -19.6,21.2c-15.2,19.6 -22.4,40.4 -16.4,60.8c0.8,2.8 2,5.6 3.2,8l-31.6,31.6c-2.8,2.8 -2.8,7.2 0,10c2.8,2.8 7.2,2.8 10,0l31.6,-31.6c2.8,1.2 5.2,2.4 8,3.2c20,6.4 40.8,-0.8 60.8,-16.4c7.2,-5.6 14.4,-12 21.2,-19.6c1.2,-0.8 2.4,-2 2.8,-3.2c10,-11.2 19.6,-24.4 28,-38.8c17.6,-28 32,-59.6 40.4,-87.6c0.8,-2.4 0.4,-5.6 -1.6,-7.6zm-31.6,22.8l-45.2,45.2l-2.8,-21.2c15.6,-9.2 32,-17.6 48,-24zm-61.2,32l3.6,25.6l-29.2,29.2l-4.4,-32.4c8.8,-7.6 19.2,-15.2 30,-22.4zm-65.6,95.2c0,-0.4 -0.4,-0.8 -0.4,-1.2c-4.8,-15.2 1.2,-32 14,-48.4c2.8,-3.6 6,-7.6 9.6,-11.2l4.8,32.8l-28,28zm59.2,-4c-16.4,12.4 -33.2,18.8 -48.4,14c-0.4,0 -0.8,-0.4 -1.2,-0.4l28,-28l32.8,4.8c-3.6,3.6 -7.2,6.8 -11.2,9.6zm23.2,-22.4l-32.4,-4.4l29.2,-29.2l25.6,3.6c-7.2,10.8 -14.8,21.2 -22.4,30zm30.4,-42.8l-21.2,-2.8l45.2,-45.6c-6.4,16 -14.8,32.8 -24,48.4z"/>
     </g>
    </g>
   </g>
   <g stroke="null" transform="matrix(0.08132481861973988,0,0,0.09462158687893255,115.08206484596377,327.40541696988686) " id="svg_218"/>
   <g stroke="null" transform="matrix(0.08132481861973988,0,0,0.09462158687893255,115.08206484596377,327.40541696988686) " id="svg_219"/>
   <g stroke="null" transform="matrix(0.08132481861973988,0,0,0.09462158687893255,115.08206484596377,327.40541696988686) " id="svg_220"/>
   <g stroke="null" transform="matrix(0.08132481861973988,0,0,0.09462158687893255,115.08206484596377,327.40541696988686) " id="svg_221"/>
   <g stroke="null" transform="matrix(0.08132481861973988,0,0,0.09462158687893255,115.08206484596377,327.40541696988686) " id="svg_222"/>
   <g stroke="null" transform="matrix(0.08132481861973988,0,0,0.09462158687893255,115.08206484596377,327.40541696988686) " id="svg_223"/>
   <g stroke="null" transform="matrix(0.08132481861973988,0,0,0.09462158687893255,115.08206484596377,327.40541696988686) " id="svg_224"/>
   <g stroke="null" transform="matrix(0.08132481861973988,0,0,0.09462158687893255,115.08206484596377,327.40541696988686) " id="svg_225"/>
   <g stroke="null" transform="matrix(0.08132481861973988,0,0,0.09462158687893255,115.08206484596377,327.40541696988686) " id="svg_226"/>
   <g stroke="null" transform="matrix(0.08132481861973988,0,0,0.09462158687893255,115.08206484596377,327.40541696988686) " id="svg_227"/>
   <g stroke="null" transform="matrix(0.08132481861973988,0,0,0.09462158687893255,115.08206484596377,327.40541696988686) " id="svg_228"/>
   <g stroke="null" transform="matrix(0.08132481861973988,0,0,0.09462158687893255,115.08206484596377,327.40541696988686) " id="svg_229"/>
   <g stroke="null" transform="matrix(0.08132481861973988,0,0,0.09462158687893255,115.08206484596377,327.40541696988686) " id="svg_230"/>
   <g stroke="null" transform="matrix(0.08132481861973988,0,0,0.09462158687893255,115.08206484596377,327.40541696988686) " id="svg_231"/>
   <g stroke="null" transform="matrix(0.08132481861973988,0,0,0.09462158687893255,115.08206484596377,327.40541696988686) " id="svg_232"/>
  </g>
  <rect id="svg_234" height="477.1449" width="538.57373" y="-17.1439" x="-23.92976" fill-opacity="0.15" stroke-opacity="null" stroke-width="1.5" stroke="#000" fill="#f40428"/>
 </g>
</svg>