<svg width="1920.0000000000002" height="1080" xmlns="http://www.w3.org/2000/svg">
 <!-- Created with Method Draw - http://github.com/duopixel/Method-Draw/ -->

 <g>
  <title>background</title>
  <rect x="-1" y="-1" width="1922" height="1082" id="canvas_background" fill="#fff"/>
  <g id="canvasGrid" display="none">
   <rect id="svg_4" width="100%" height="100%" x="0" y="0" stroke-width="0" fill="url(#gridpattern)"/>
  </g>
 </g>
 <g>
  <title>Layer 1</title>
  <rect fill="#161616" stroke-width="1.5" x="-23.10207" y="-18.27098" width="1977.14788" height="1131.43125" id="svg_1" stroke="#000"/>
  <rect fill="#333333" stroke-width="0" x="125.85258" y="72.17366" width="177.25332" height="17.55555" id="svg_2" transform="rotate(-20.868120193481445 214.47924804687494,80.95143127441406) " stroke="#000"/>
  <rect fill="#828282" stroke-width="0" x="34.27506" y="92.33433" width="120.11455" height="16" id="svg_3" transform="rotate(-20.616859436035156 94.33233642578116,100.33432769775388) " stroke="#000"/>
  <rect fill="#f48024" stroke-width="0" x="1491.3179" y="973.44659" width="197.64099" height="24" id="svg_5" stroke="#000" transform="rotate(-23.776275634765625 1590.1333007812495,985.4465332031255) "/>
  <rect fill="#828282" stroke-width="0" x="1633.37518" y="930.02884" width="65.26506" height="13.92199" id="svg_6" transform="rotate(-23.776275634765625 1666.002441406251,936.9897460937502) " stroke="#000"/>
  <line fill="none" stroke-width="3" x1="1391.47904" y1="1000.64941" x2="1562.52548" y2="999.64941" id="svg_7" stroke-linejoin="null" stroke-linecap="null" stroke="#1c1a25" transform="rotate(-23.776275634765625 1476.996948242187,1000.1489868164062) "/>
  <ellipse fill="#333333" stroke-width="0" stroke-opacity="null" cx="85.00263" cy="190.93889" id="svg_9" rx="11.59345" ry="11.12834" stroke="#000"/>
  <ellipse fill="#333333" stroke-width="0" stroke-opacity="null" cx="1615.23876" cy="406.51276" id="svg_10" rx="11.22308" ry="10.3876" stroke="#000"/>
  <line fill="none" x1="98.61082" y1="708.7049" x2="82.38785" y2="758.70507" id="svg_13" stroke-linejoin="null" stroke-linecap="null" stroke-width="6" stroke="#1e1e1d"/>
  <rect fill="#000000" stroke-width="0" x="1444.91212" y="121.04579" width="115.01464" height="5.43924" id="svg_21" transform="rotate(35.40372085571289 1502.41943359375,123.7653961181639) " stroke="#000"/>
  <ellipse fill="#333333" stroke-width="0" stroke-opacity="null" cx="120.18307" cy="739.37156" id="svg_22" rx="11.22308" ry="10.3876" stroke="#000"/>
  <ellipse fill="#333333" stroke-width="0" stroke-opacity="null" cx="1577.90518" cy="918.32486" id="svg_23" rx="11.22308" ry="10.3876" stroke="#000"/>
  <line fill="none" stroke="#ffffff" stroke-width="3" fill-opacity="null" x1="1517.00334" y1="949.60176" x2="1289.85934" y2="1048.17368" id="svg_24" stroke-linejoin="null" stroke-linecap="null"/>
  <line fill="none" x1="1470.594" y1="324.51784" x2="1454.37103" y2="510.09843" id="svg_26" stroke-linejoin="null" stroke-linecap="null" stroke-width="6" transform="rotate(61.57491683959961 1462.4759521484377,417.3081665039063) " stroke="#f99243"/>
  <rect fill="#828282" stroke-width="0" x="1504.99365" y="368.60609" width="65.26506" height="13.92199" id="svg_28" transform="rotate(-23.776275634765625 1537.6195068359373,375.5670166015626) " stroke="#000"/>
  <line fill="none" stroke-width="3" x1="1314.39929" y1="469.54575" x2="1485.44573" y2="468.54575" id="svg_29" stroke-linejoin="null" stroke-linecap="null" stroke="#1c1a25" transform="rotate(-23.776275634765625 1399.9160156250007,469.04528808593733) "/>
 </g>
</svg>