<svg width="600" height="1080" xmlns="http://www.w3.org/2000/svg">
 <!-- Created with Method Draw - http://github.com/duopixel/Method-Draw/ -->

 <g>
  <title>background</title>
  <rect x="-1" y="-1" width="602" height="1082" id="canvas_background" fill="#fff"/>
  <g id="canvasGrid" display="none">
   <rect id="svg_4" width="100%" height="100%" x="0" y="0" stroke-width="0" fill="url(#gridpattern)"/>
  </g>
 </g>
 <g>
  <title>Layer 1</title>
  <rect fill="#161616" stroke-width="1.5" x="-20.43545" y="-7.6043" width="1406.48" height="1110.09788" id="svg_1" stroke="#000"/>
  <rect fill="#333333" stroke-width="0" x="189.85273" y="197.50728" width="177.25332" height="17.55555" id="svg_2" transform="rotate(-20.868120193481445 278.47940063476545,206.28504943847653) " stroke="#000"/>
  <rect fill="#828282" stroke-width="0" x="98.2752" y="217.66794" width="120.11455" height="16" id="svg_3" transform="rotate(-20.616859436035156 158.33247375488276,225.66793823242188) " stroke="#000"/>
  <rect fill="#f48024" stroke-width="0" x="404.64876" y="781.44616" width="197.64099" height="24" id="svg_5" stroke="#000" transform="rotate(-23.776275634765625 503.4693298339842,793.4461669921875) "/>
  <rect fill="#828282" stroke-width="0" x="546.70604" y="738.02842" width="65.26506" height="13.92199" id="svg_6" transform="rotate(-23.776275634765625 579.3334350585941,744.9893798828128) " stroke="#000"/>
  <line fill="none" stroke-width="3" x1="304.8099" y1="808.64899" x2="475.85634" y2="807.64899" id="svg_7" stroke-linejoin="null" stroke-linecap="null" stroke="#1c1a25" transform="rotate(-23.776275634765625 390.327911376953,808.1486206054686) "/>
  <ellipse fill="#333333" stroke-width="0" stroke-opacity="null" cx="149.00277" cy="316.27251" id="svg_9" rx="11.59345" ry="11.12834" stroke="#000"/>
  <ellipse fill="#333333" stroke-width="0" stroke-opacity="null" cx="1309.90473" cy="426.51281" id="svg_10" rx="11.22308" ry="10.3876" stroke="#000"/>
  <line fill="none" x1="162.61096" y1="568.70459" x2="146.38799" y2="618.70475" id="svg_13" stroke-linejoin="null" stroke-linecap="null" stroke-width="6" stroke="#1e1e1d"/>
  <rect fill="#000000" stroke-width="0" x="1154.2448" y="165.04589" width="115.01464" height="5.43924" id="svg_21" transform="rotate(35.40372085571289 1211.7520751953125,167.76551818847648) " stroke="#000"/>
  <ellipse fill="#333333" stroke-width="0" stroke-opacity="null" cx="184.18322" cy="599.37124" id="svg_22" rx="11.22308" ry="10.3876" stroke="#000"/>
  <ellipse fill="#333333" stroke-width="0" stroke-opacity="null" cx="491.23604" cy="726.32444" id="svg_23" rx="11.22308" ry="10.3876" stroke="#000"/>
  <line fill="none" stroke="#ffffff" stroke-width="3" fill-opacity="null" x1="430.33419" y1="757.60134" x2="203.1902" y2="856.17326" id="svg_24" stroke-linejoin="null" stroke-linecap="null"/>
  <line fill="none" x1="1165.25997" y1="344.51789" x2="1149.037" y2="530.09848" id="svg_26" stroke-linejoin="null" stroke-linecap="null" stroke-width="6" transform="rotate(61.57491683959961 1157.141845703125,437.3082275390625) " stroke="#f99243"/>
  <rect fill="#828282" stroke-width="0" x="1199.65962" y="388.60613" width="65.26506" height="13.92199" id="svg_28" transform="rotate(-23.776275634765625 1232.292236328125,395.56713867187506) " stroke="#000"/>
  <line fill="none" stroke-width="3" x1="1009.06526" y1="489.5458" x2="1180.1117" y2="488.5458" id="svg_29" stroke-linejoin="null" stroke-linecap="null" stroke="#1c1a25" transform="rotate(-23.776275634765625 1094.58203125,489.04534912109403) "/>
 </g>
</svg>